<?xml version="1.0" encoding="UTF-8"?>
<svg id="Flattened" xmlns="http://www.w3.org/2000/svg" xmlns:xlink="http://www.w3.org/1999/xlink" viewBox="0 0 900 900">
  <defs>
    <style>
      .cls-1 {
        filter: url(#drop-shadow-2);
      }

      .cls-2 {
        filter: url(#drop-shadow-3);
      }

      .cls-3 {
        filter: url(#drop-shadow-1);
      }
    </style>
    <filter id="drop-shadow-1" filterUnits="userSpaceOnUse">
      <feOffset dx="0" dy="0"/>
      <feGaussianBlur result="blur" stdDeviation="12"/>
      <feFlood flood-color="#fff" flood-opacity=".75"/>
      <feComposite in2="blur" operator="in"/>
      <feComposite in="SourceGraphic"/>
    </filter>
    <filter id="drop-shadow-2" filterUnits="userSpaceOnUse">
      <feOffset dx="0" dy="0"/>
      <feGaussianBlur result="blur-2" stdDeviation="12"/>
      <feFlood flood-color="#fff" flood-opacity=".75"/>
      <feComposite in2="blur-2" operator="in"/>
      <feComposite in="SourceGraphic"/>
    </filter>
    <filter id="drop-shadow-3" filterUnits="userSpaceOnUse">
      <feOffset dx="0" dy="0"/>
      <feGaussianBlur result="blur-3" stdDeviation="12"/>
      <feFlood flood-color="#fff" flood-opacity=".75"/>
      <feComposite in2="blur-3" operator="in"/>
      <feComposite in="SourceGraphic"/>
    </filter>
  </defs>
  <path class="cls-3" d="m450,234c-119.293,0-216,96.707-216,216s96.707,216,216,216c59.647,0,113.647-24.177,152.735-63.265l-50.912-50.912c-27.198,27.198-63.36,42.177-101.823,42.177s-74.625-14.979-101.823-42.177c-27.198-27.198-42.177-63.36-42.177-101.823s14.979-74.625,42.177-101.823c27.198-27.198,63.36-42.177,101.823-42.177s74.625,14.979,101.823,42.177l50.912-50.912c-39.088-39.088-93.088-63.265-152.735-63.265Z"/>
  <rect class="cls-1" x="414" y="378" width="72" height="144"/>
  <path class="cls-2" d="m728.742,677.83c50.784-62.059,81.258-141.385,81.258-227.83s-30.473-165.771-81.258-227.83l104.325-104.325,48.932,8.155V18s-216,0-216,0v72l79.79,13.298-119.197,119.197c11.885,9.239,23.026,19.387,33.319,30.341.002.002.004.005.006.007,6.175,6.572,12.045,13.434,17.587,20.564l.019-.019c15.373,19.744,28.063,41.338,37.873,64.531,14.998,35.46,22.603,73.169,22.603,112.081s-7.605,76.621-22.603,112.081c-9.81,23.193-22.5,44.787-37.873,64.531l-.019-.019c-5.542,7.13-11.412,13.992-17.587,20.564-.002.002-.004.005-.006.007-4.116,4.381-8.368,8.632-12.748,12.748-.002.002-.005.004-.007.006-6.572,6.175-13.434,12.045-20.564,17.587l.019.019c-19.744,15.373-41.338,28.063-64.531,37.873-35.46,14.998-73.169,22.603-112.081,22.603s-76.621-7.605-112.081-22.603c-23.193-9.81-44.787-22.5-64.531-37.873l.019-.019c-7.13-5.542-13.992-11.412-20.564-17.587-.002-.002-.005-.004-.007-.006-4.381-4.116-8.632-8.368-12.748-12.748-.002-.002-.004-.005-.006-.007-6.175-6.572-12.045-13.434-17.587-20.564l-.019.019c-15.373-19.744-28.063-41.338-37.873-64.531-14.998-35.46-22.603-73.169-22.603-112.081s7.605-76.621,22.603-112.081c9.81-23.193,22.5-44.787,37.873-64.531l.019.019c5.542-7.13,11.412-13.992,17.587-20.564.002-.002.004-.005.006-.007,10.293-10.955,21.434-21.103,33.319-30.341l-119.197-119.197,79.79-13.298V18H18v108l48.932-8.155,104.325,104.325c-50.785,62.059-81.258,141.384-81.258,227.83s30.473,165.771,81.258,227.83l-104.325,104.325-48.932-8.155v108h216v-72l-79.79-13.298,67.96-67.96c62.059,50.784,141.385,81.258,227.83,81.258s165.771-30.473,227.83-81.258l67.96,67.96-79.79,13.298v72h216v-108l-48.932,8.155-104.325-104.325Z"/>
</svg>