<svg width="1200" height="1200" viewBox="0 0 1200 1200" fill="none" xmlns="http://www.w3.org/2000/svg">
<path d="M0 10C0 4 4 0 10 0H1190C1196 0 1200 4 1200 10V1190C1200 1196 1196 1200 1190 1200H10C4 1200 0 1196 0 1190" fill="#5555FF"/>
<path d="M1050 325C1047.47 307.484 1038.4 291.576 1024.62 280.477C1010.83 269.378 993.357 263.912 975.705 265.18C958.053 266.447 941.536 274.353 929.479 287.308C917.421 300.262 910.718 317.303 910.718 335C910.718 352.697 917.421 369.738 929.479 382.692C941.536 395.647 958.053 403.553 975.705 404.82C993.357 406.088 1010.83 400.622 1024.62 389.523C1038.4 378.424 1047.47 362.516 1050 345M1030 458H939C933 458 930 461 930 466L933 774H932L683 309C680 303 678 303 672 302H538C533 302 531 305 531 309V685C530 782 487 835 398 835C309 834 265 780 265 685V310C265 305 262 302 257 302H158C152 302 150 305 150 311V688C147 860 250 935 398 936C546 938 646 855 646 688V448L896 920C898 925 903 927 908 927H1029C1035 927 1039 924 1039 918V467C1039 461 1036 458 1030 458Z" fill="white"/>
</svg>
